<svg xmlns="http://www.w3.org/2000/svg" xmlns:xlink="http://www.w3.org/1999/xlink" version="1.1" x="0px" y="0px" viewBox="0 0 100 100" enable-background="new 0 0 100 100" xml:space="preserve"><path fill="none" stroke="#000000" stroke-width="0.4628" stroke-linecap="round" stroke-miterlimit="10" d="M3.897,68.686"></path><g><path d="M94.982,61.332c0.379,0.397,0.249,0.817-0.287,0.933l-10.354,2.23c-0.536,0.115-1.09,0.2-1.229,0.188   c-0.14-0.013-0.656-0.223-1.147-0.467l-1.983-0.987c-0.491-0.244-1.021-0.014-1.177,0.513l-0.283,0.959   c-0.156,0.526-0.722,1.055-1.258,1.175l-17.509,3.913c-0.536,0.12-1.297-0.095-1.69-0.478L22.266,34.54   c-0.394-0.382-0.269-0.742,0.277-0.8l40.982-4.32c0.547-0.058,1.303,0.221,1.682,0.619L94.982,61.332z"></path></g><g><path d="M55.285,70.21c0.549,0.003,0.677-0.308,0.283-0.691L20.382,35.186c-0.393-0.384-1.125-0.515-1.626-0.292   c0,0-14.301,6.356-6.092,35.056L55.285,70.21z"></path></g></svg>