<svg xmlns="http://www.w3.org/2000/svg" xmlns:xlink="http://www.w3.org/1999/xlink" version="1.1" x="0px" y="0px" viewBox="0 0 100 100" enable-background="new 0 0 100 100" xml:space="preserve"><path d="M88.234,44.958c0,0-20.463-7.357-28.603-7.571c-2.698-1.18-16.636-7.147-16.801-4.522c-0.145,2.32,1.672,6.143-1.283,8.793  c-6.706,1.567-13.337,2.96-16.216,3.253c-4.123-1.73-20.001-8.266-19.369-6.052c0.726,2.543,7.991,8.56,5.085,11.726  c-2.906,3.166-8.209,5.709-5.104,7.525c2.51,1.468,14.256-2.401,18.672-3.94c1.022,0.557,2.24,1.154,3.617,1.761L28.23,55.93  c0,0,3.158,4.54,7.154,5.521c3.996,0.981,6.72,3.56,6.72,5.952c0,1.767,6.243-2.859,9.505-5.397  c2.331,0.124,5.099,0.049,8.094-0.182c-0.676,1.855-1.308,4.292-0.462,5.35c1.256,1.57,11.598-5.336,14.376-7.236  c3.78-0.709,7.431-1.551,10.614-2.457h0c0.002,0,0.003-0.001,0.005-0.002c1.078-0.307,2.1-0.621,3.054-0.939  c0.013-0.004,0.027-0.009,0.04-0.013c0.292-0.098,0.576-0.196,0.855-0.294c0.071-0.025,0.141-0.05,0.211-0.076  c0.778-0.279,1.499-0.56,2.157-0.842c0.13-0.056,0.259-0.112,0.384-0.167c0.161-0.072,0.321-0.144,0.473-0.216  c0.175-0.083,0.341-0.165,0.504-0.248c0.158-0.08,0.31-0.16,0.456-0.239c0.169-0.092,0.333-0.184,0.486-0.276  c0.089-0.053,0.172-0.106,0.255-0.159c0.147-0.094,0.283-0.187,0.412-0.28c0.057-0.041,0.118-0.082,0.171-0.123  c0.17-0.13,0.321-0.26,0.454-0.389c0.035-0.035,0.064-0.069,0.097-0.103c0.098-0.103,0.184-0.206,0.257-0.308  c0.027-0.038,0.055-0.076,0.079-0.114c0.082-0.132,0.151-0.262,0.189-0.392C96.134,47.667,91.08,45.993,88.234,44.958z"></path></svg>