<svg xmlns="http://www.w3.org/2000/svg" xmlns:xlink="http://www.w3.org/1999/xlink" version="1.1" x="0px" y="0px" viewBox="0 0 100 100" enable-background="new 0 0 100 100" xml:space="preserve"><path fill="#000000" d="M3.411,58.925c0,15.424,12.776,39.055,28.516,39.055c1.923,0,3.85-0.193,5.729-0.576l0.293-0.061  l0.293,0.061c1.879,0.383,3.806,0.576,5.729,0.576c1.894,0,3.744-0.351,5.538-0.98l0.422-0.159c1.061-0.4,2.094-0.905,3.105-1.489  c0.199-0.114,0.399-0.226,0.596-0.348c0.123-0.076,0.246-0.157,0.369-0.236c10.348-6.69,17.841-22.491,18.446-34.327  c0.001-0.02,0.003-0.039,0.005-0.058c0.022-0.493,0.035-0.978,0.035-1.457c0-0.899-0.054-1.788-0.135-2.668  c-0.04-0.406-0.105-0.809-0.161-1.211c-0.06-0.439-0.121-0.88-0.2-1.312c-0.102-0.536-0.222-1.065-0.352-1.591  c-0.064-0.258-0.13-0.518-0.201-0.772c-0.176-0.629-0.366-1.252-0.583-1.863c-0.035-0.097-0.071-0.193-0.106-0.289  c-1.897-5.165-5.255-9.696-9.62-13.014c-0.055-0.042-0.11-0.083-0.168-0.127c-0.574-0.431-1.168-0.842-1.777-1.229  c-0.105-0.066-0.214-0.128-0.318-0.193c-0.59-0.366-1.191-0.716-1.812-1.04c-0.099-0.051-0.201-0.094-0.303-0.146  c-1.99-1.007-4.116-1.786-6.355-2.302c-0.112-0.026-0.22-0.061-0.33-0.085l-0.549-0.122c-1.795-0.354-3.648-0.549-5.545-0.549  c-1.262,0-2.517,0.113-3.763,0.277c1.403-3.12,4.711-8.601,11.05-9.794l-0.542-2.89c-8.794,1.655-12.615,9.76-13.775,12.874  c-1.649-0.292-3.329-0.466-5.014-0.466C16.202,30.411,3.411,43.202,3.411,58.925z M21.91,82.551  c1.059,1.438,2.232,2.885,3.486,4.302l-2.2,1.95c-1.315-1.482-2.544-2.999-3.656-4.509L21.91,82.551z M15.716,44.44l1.243,0.787  c-0.371,0.587-8.945,14.597,2.242,33.264l-2.522,1.512C4.522,59.721,14.064,44.297,14.477,43.65L15.716,44.44z"></path><path fill="#000000" d="M68.974,30.411c-1.261,0-2.516,0.113-3.763,0.277c1.403-3.12,4.712-8.601,11.051-9.794l-0.543-2.89  c-8.793,1.655-12.615,9.757-13.775,12.872c-1.558-0.276-3.143-0.45-4.733-0.464c0.203,0.095,0.396,0.207,0.597,0.306  c1.759,0.866,3.422,1.89,4.979,3.056c0.072,0.055,0.146,0.11,0.218,0.164c4.628,3.533,8.241,8.309,10.349,13.837  c0.036,0.099,0.07,0.198,0.108,0.298c0.394,1.07,0.731,2.165,1.01,3.287c0.072,0.281,0.153,0.559,0.217,0.842  c0.09,0.406,0.157,0.819,0.229,1.231c0.102,0.558,0.19,1.119,0.258,1.688c0.04,0.332,0.083,0.661,0.111,0.998  c0.086,0.928,0.144,1.861,0.144,2.806c0,0.726-0.036,1.473-0.085,2.229c-0.016,0.218-0.031,0.437-0.05,0.656  c-0.057,0.669-0.13,1.346-0.225,2.034c-0.052,0.377-0.116,0.758-0.179,1.138c-0.053,0.318-0.109,0.635-0.169,0.955  c-0.796,4.28-2.256,8.729-4.255,12.977c-0.183,0.388-0.37,0.774-0.562,1.158c-0.157,0.317-0.311,0.635-0.475,0.948  c-0.392,0.755-0.802,1.496-1.226,2.229c-0.057,0.098-0.115,0.194-0.172,0.292c-3.492,5.949-8.054,11.146-13.349,14.271  c2.71,0.396,5.371,0.119,7.976-0.409l0.293-0.061l0.293,0.061c1.879,0.383,3.804,0.576,5.728,0.576  c15.741,0,28.517-23.631,28.517-39.055C97.49,43.202,84.699,30.411,68.974,30.411z"></path><path fill="#000000" d="M11.772,1.788l0.083,1.888c1.313,24.668,22.554,25.699,22.768,25.703l1.423,0.027l0.075-1.59  c0.405-7.742-1.535-14.097-5.767-18.557c-6.691-7.052-16.61-7.472-17.03-7.472H11.772z M28.22,11.624  c3.382,3.565,5.066,8.501,5.009,14.69C28.922,25.751,16.57,22.643,14.916,5.52C17.772,5.836,23.87,7.041,28.22,11.624z"></path></svg>