<svg xmlns:dc="http://purl.org/dc/elements/1.1/" xmlns:cc="http://creativecommons.org/ns#" xmlns:rdf="http://www.w3.org/1999/02/22-rdf-syntax-ns#" xmlns:svg="http://www.w3.org/2000/svg" xmlns="http://www.w3.org/2000/svg" xmlns:sodipodi="http://sodipodi.sourceforge.net/DTD/sodipodi-0.dtd" xmlns:inkscape="http://www.inkscape.org/namespaces/inkscape" viewBox="0 0 80 80" version="1.1" x="0px" y="0px"><g style="display:inline;opacity:1"><path style="" d="m 31.305686,23.7 c -0.197775,0 -0.370433,0.172658 -0.370433,0.370433 l 0,0.740866 C 12.958686,24.325791 14.816179,24.346321 1.2956442,24.030173 7.6529845,33.242986 16.85471,35.86051 29.652985,41.851219 c 1.249441,6.48298 -1.363,7.720069 -5.214558,7.722105 -0.683876,3.70433 -1.82367,10.942022 -1.82367,10.942022 l 7.294681,0 c 0,0 8.132117,-2.304659 12.537734,-2.137113 5.421608,-0.304194 13.905487,2.137113 13.905487,2.137113 l 5.471011,0 L 60,49.573324 c -4.742266,-0.448052 -7.033605,-5.595977 -5.955424,-9.089857 0.960331,-2.667701 4.193455,-3.875385 6.610806,-5.357032 4.239324,-2.598375 13.301737,-6.167209 15.843136,-7.152207 l 1.139794,0 c 0.197775,0 0.341938,-0.172659 0.341938,-0.370434 l 0,-3.533361 C 77.98025,23.872658 77.836087,23.7 77.638312,23.7 z" fill="#000000" fill-opacity="1" stroke="none"></path></g></svg>